<?xml version="1.0" encoding="UTF-8" standalone="no"?>
<!DOCTYPE svg PUBLIC "-//W3C//DTD SVG 1.1//EN"
 "http://www.w3.org/Graphics/SVG/1.1/DTD/svg11.dtd">
<!-- Generated by graphviz version 2.28.0 (20120731.2305)
 -->
<!-- Title: bar Pages: 1 -->
<svg width="722pt" height="376pt"
 viewBox="0.00 0.00 722.00 376.00" xmlns="http://www.w3.org/2000/svg" xmlns:xlink="http://www.w3.org/1999/xlink">
<g id="graph1" class="graph" transform="scale(1 1) rotate(0) translate(4 372)">
<title>bar</title>
<polygon fill="white" stroke="white" points="-4,5 -4,-372 719,-372 719,5 -4,5"/>
<!-- ENTRY -->
<g id="node1" class="node"><title>ENTRY</title>
<ellipse fill="black" stroke="black" cx="2" cy="-194" rx="1.8" ry="1.8"/>
</g>
<!-- 8 -->
<g id="node3" class="node"><title>8</title>
<ellipse fill="none" stroke="black" cx="98" cy="-175" rx="23.5" ry="23.5"/>
<ellipse fill="none" stroke="black" cx="98" cy="-175" rx="27.5" ry="27.5"/>
<text text-anchor="middle" x="98" y="-171.3" font-family="Times,serif" font-size="14.00">8</text>
</g>
<!-- ENTRY&#45;&gt;8 -->
<g id="edge42" class="edge"><title>ENTRY&#45;&gt;8</title>
<path fill="none" stroke="black" d="M4.05566,-193.787C9.73862,-192.638 37.3126,-187.064 60.9638,-182.284"/>
<polygon fill="black" stroke="black" points="61.6762,-185.711 70.7845,-180.299 60.2893,-178.85 61.6762,-185.711"/>
<text text-anchor="middle" x="37" y="-193.8" font-family="Times,serif" font-size="14.00">IN</text>
</g>
<!-- en_8 -->
<g id="node2" class="node"><title>en_8</title>
<ellipse fill="black" stroke="black" cx="2" cy="-156" rx="1.8" ry="1.8"/>
</g>
<!-- en_8&#45;&gt;8 -->
<g id="edge44" class="edge"><title>en_8&#45;&gt;8</title>
<path fill="none" stroke="black" d="M4.05566,-156.213C9.73862,-157.362 37.3126,-162.936 60.9638,-167.716"/>
<polygon fill="black" stroke="black" points="60.2893,-171.15 70.7845,-169.701 61.6762,-164.289 60.2893,-171.15"/>
<text text-anchor="middle" x="37" y="-169.8" font-family="Times,serif" font-size="14.00">main</text>
</g>
<!-- 1 -->
<g id="node4" class="node"><title>1</title>
<ellipse fill="none" stroke="black" cx="269" cy="-175" rx="23.5" ry="23.5"/>
<text text-anchor="middle" x="269" y="-171.3" font-family="Times,serif" font-size="14.00">1</text>
</g>
<!-- 8&#45;&gt;1 -->
<g id="edge36" class="edge"><title>8&#45;&gt;1</title>
<path fill="none" stroke="black" d="M125.779,-175C155.464,-175 203.354,-175 235.249,-175"/>
<polygon fill="black" stroke="black" points="235.403,-178.5 245.403,-175 235.403,-171.5 235.403,-178.5"/>
<text text-anchor="middle" x="176" y="-178.8" font-family="Times,serif" font-size="14.00">&#39;\t&#39;..&#39;\r&#39;, SP</text>
</g>
<!-- 2 -->
<g id="node7" class="node"><title>2</title>
<ellipse fill="none" stroke="black" cx="424" cy="-312" rx="23.5" ry="23.5"/>
<text text-anchor="middle" x="424" y="-308.3" font-family="Times,serif" font-size="14.00">2</text>
</g>
<!-- 8&#45;&gt;2 -->
<g id="edge38" class="edge"><title>8&#45;&gt;2</title>
<path fill="none" stroke="black" d="M103.738,-201.807C109.279,-224.761 120.827,-256.755 144,-274 217.869,-328.972 334.079,-323.622 390.331,-316.956"/>
<polygon fill="black" stroke="black" points="390.957,-320.405 400.433,-315.667 390.07,-313.461 390.957,-320.405"/>
<text text-anchor="middle" x="269" y="-324.8" font-family="Times,serif" font-size="14.00">&#39;&quot;&#39;</text>
</g>
<!-- 5 -->
<g id="node9" class="node"><title>5</title>
<ellipse fill="none" stroke="black" cx="424" cy="-116" rx="23.5" ry="23.5"/>
<text text-anchor="middle" x="424" y="-112.3" font-family="Times,serif" font-size="14.00">5</text>
</g>
<!-- 8&#45;&gt;5 -->
<g id="edge40" class="edge"><title>8&#45;&gt;5</title>
<path fill="none" stroke="black" d="M123.149,-163.322C148.214,-151.817 188.873,-134.858 226,-127 282.791,-114.98 350.719,-114.054 390.155,-114.801"/>
<polygon fill="black" stroke="black" points="390.172,-118.302 400.252,-115.041 390.338,-111.304 390.172,-118.302"/>
<text text-anchor="middle" x="269" y="-130.8" font-family="Times,serif" font-size="14.00">&#39;&#39;&#39;</text>
</g>
<!-- 1&#45;&gt;1 -->
<g id="edge2" class="edge"><title>1&#45;&gt;1</title>
<path fill="none" stroke="black" d="M254.151,-193.127C250.277,-204.782 255.227,-216 269,-216 278.684,-216 284.007,-210.454 284.967,-203.11"/>
<polygon fill="black" stroke="black" points="288.44,-202.675 283.849,-193.127 281.483,-203.454 288.44,-202.675"/>
<text text-anchor="middle" x="269" y="-219.8" font-family="Times,serif" font-size="14.00">&#39;\t&#39;..&#39;\r&#39;, SP</text>
</g>
<!-- 1&#45;&gt;2 -->
<g id="edge4" class="edge"><title>1&#45;&gt;2</title>
<path fill="none" stroke="black" d="M292.465,-179.543C317.215,-185.593 356.838,-198.503 382,-223 397.912,-238.491 408.257,-261.325 414.575,-279.986"/>
<polygon fill="black" stroke="black" points="411.254,-281.092 417.6,-289.576 417.93,-278.986 411.254,-281.092"/>
<text text-anchor="middle" x="356" y="-226.8" font-family="Times,serif" font-size="14.00">&#39;&quot;&#39;</text>
</g>
<!-- 1&#45;&gt;5 -->
<g id="edge6" class="edge"><title>1&#45;&gt;5</title>
<path fill="none" stroke="black" d="M291.069,-166.951C313.59,-158.337 350.339,-144.255 382,-132 385.307,-130.72 388.762,-129.378 392.203,-128.039"/>
<polygon fill="black" stroke="black" points="393.683,-131.219 401.729,-124.327 391.14,-124.697 393.683,-131.219"/>
<text text-anchor="middle" x="356" y="-154.8" font-family="Times,serif" font-size="14.00">&#39;&#39;&#39;</text>
</g>
<!-- 2&#45;&gt;8 -->
<g id="edge8" class="edge"><title>2&#45;&gt;8</title>
<path fill="none" stroke="black" d="M402.027,-320.696C351.477,-340.115 221.384,-380.729 144,-320 111.585,-294.561 101.978,-246.121 99.4114,-212.257"/>
<polygon fill="black" stroke="black" points="102.904,-212.034 98.8233,-202.257 95.9165,-212.445 102.904,-212.034"/>
<text text-anchor="middle" x="269" y="-356.8" font-family="Times,serif" font-size="14.00">&#39;&quot;&#39; / Start, Stop</text>
</g>
<!-- 4 -->
<g id="node12" class="node"><title>4</title>
<ellipse fill="none" stroke="black" cx="690" cy="-298" rx="23.5" ry="23.5"/>
<text text-anchor="middle" x="690" y="-294.3" font-family="Times,serif" font-size="14.00">4</text>
</g>
<!-- 2&#45;&gt;4 -->
<g id="edge10" class="edge"><title>2&#45;&gt;4</title>
<path fill="none" stroke="black" d="M447.198,-316.792C480.848,-323.344 546.708,-333.383 602,-325 621.164,-322.095 641.919,-315.783 658.35,-309.992"/>
<polygon fill="black" stroke="black" points="659.77,-313.199 667.968,-306.488 657.374,-306.622 659.77,-313.199"/>
<text text-anchor="middle" x="577" y="-332.8" font-family="Times,serif" font-size="14.00">&#39;\&#39; / Start</text>
</g>
<!-- 3 -->
<g id="node14" class="node"><title>3</title>
<ellipse fill="none" stroke="black" cx="577" cy="-260" rx="23.5" ry="23.5"/>
<text text-anchor="middle" x="577" y="-256.3" font-family="Times,serif" font-size="14.00">3</text>
</g>
<!-- 2&#45;&gt;3 -->
<g id="edge12" class="edge"><title>2&#45;&gt;3</title>
<path fill="none" stroke="black" d="M446.314,-304.66C471.912,-295.845 515.074,-280.981 544.515,-270.843"/>
<polygon fill="black" stroke="black" points="545.99,-274.036 554.305,-267.471 543.71,-267.418 545.99,-274.036"/>
<text text-anchor="middle" x="500" y="-300.8" font-family="Times,serif" font-size="14.00">DEF / Start</text>
</g>
<!-- 5&#45;&gt;8 -->
<g id="edge22" class="edge"><title>5&#45;&gt;8</title>
<path fill="none" stroke="black" d="M402.179,-107.323C380.209,-98.6729 344.353,-85.9798 312,-81 274.223,-75.1852 263.865,-75.7901 226,-81 188.502,-86.1593 174.367,-81.4054 144,-104 131.253,-113.485 121.209,-127.744 113.874,-141.001"/>
<polygon fill="black" stroke="black" points="110.731,-139.46 109.23,-149.948 116.943,-142.685 110.731,-139.46"/>
<text text-anchor="middle" x="269" y="-84.8" font-family="Times,serif" font-size="14.00">&#39;&#39;&#39; / Start, Stop</text>
</g>
<!-- 7 -->
<g id="node21" class="node"><title>7</title>
<ellipse fill="none" stroke="black" cx="690" cy="-61" rx="23.5" ry="23.5"/>
<text text-anchor="middle" x="690" y="-57.3" font-family="Times,serif" font-size="14.00">7</text>
</g>
<!-- 5&#45;&gt;7 -->
<g id="edge24" class="edge"><title>5&#45;&gt;7</title>
<path fill="none" stroke="black" d="M447.633,-113.814C481.566,-110.223 547.467,-102.04 602,-88 620.644,-83.2 641.23,-76.8597 657.694,-71.5294"/>
<polygon fill="black" stroke="black" points="658.945,-74.8027 667.359,-68.3638 656.766,-68.1504 658.945,-74.8027"/>
<text text-anchor="middle" x="577" y="-102.8" font-family="Times,serif" font-size="14.00">&#39;\&#39; / Start</text>
</g>
<!-- 6 -->
<g id="node23" class="node"><title>6</title>
<ellipse fill="none" stroke="black" cx="577" cy="-23" rx="23.5" ry="23.5"/>
<text text-anchor="middle" x="577" y="-19.3" font-family="Times,serif" font-size="14.00">6</text>
</g>
<!-- 5&#45;&gt;6 -->
<g id="edge26" class="edge"><title>5&#45;&gt;6</title>
<path fill="none" stroke="black" d="M443.539,-102.363C450.491,-97.3891 458.519,-91.8086 466,-87 492.833,-69.752 524.387,-51.6029 546.802,-39.055"/>
<polygon fill="black" stroke="black" points="548.775,-41.9625 555.808,-34.0392 545.369,-35.8469 548.775,-41.9625"/>
<text text-anchor="middle" x="500" y="-90.8" font-family="Times,serif" font-size="14.00">DEF / Start</text>
</g>
<!-- 4&#45;&gt;3 -->
<g id="edge20" class="edge"><title>4&#45;&gt;3</title>
<path fill="none" stroke="black" d="M675.669,-279.065C668.543,-270.612 658.974,-261.546 648,-257 636.266,-252.14 622.459,-251.743 610.222,-252.978"/>
<polygon fill="black" stroke="black" points="609.383,-249.561 599.964,-254.411 610.352,-256.493 609.383,-249.561"/>
<text text-anchor="middle" x="634" y="-260.8" font-family="Times,serif" font-size="14.00">DEF</text>
</g>
<!-- 3&#45;&gt;8 -->
<g id="edge14" class="edge"><title>3&#45;&gt;8</title>
<path fill="none" stroke="black" d="M553.376,-261.886C496.932,-265.914 345.824,-272.527 226,-240 191.086,-230.522 154.67,-210.7 129.831,-195.423"/>
<polygon fill="black" stroke="black" points="131.56,-192.375 121.228,-190.028 127.841,-198.306 131.56,-192.375"/>
<text text-anchor="middle" x="356" y="-267.8" font-family="Times,serif" font-size="14.00">&#39;&quot;&#39; / Stop</text>
</g>
<!-- 3&#45;&gt;4 -->
<g id="edge16" class="edge"><title>3&#45;&gt;4</title>
<path fill="none" stroke="black" d="M599.283,-268.369C605.893,-270.898 613.224,-273.631 620,-276 632.117,-280.236 645.544,-284.593 657.308,-288.299"/>
<polygon fill="black" stroke="black" points="656.555,-291.731 667.144,-291.371 658.642,-285.049 656.555,-291.731"/>
<text text-anchor="middle" x="634" y="-288.8" font-family="Times,serif" font-size="14.00">&#39;\&#39;</text>
</g>
<!-- 3&#45;&gt;3 -->
<g id="edge18" class="edge"><title>3&#45;&gt;3</title>
<path fill="none" stroke="black" d="M566.81,-281.095C565.4,-291.616 568.797,-301 577,-301 582.383,-301 585.697,-296.959 586.94,-291.207"/>
<polygon fill="black" stroke="black" points="590.442,-291.179 587.19,-281.095 583.444,-291.006 590.442,-291.179"/>
<text text-anchor="middle" x="577" y="-304.8" font-family="Times,serif" font-size="14.00">DEF</text>
</g>
<!-- 7&#45;&gt;6 -->
<g id="edge34" class="edge"><title>7&#45;&gt;6</title>
<path fill="none" stroke="black" d="M675.669,-42.0653C668.543,-33.6118 658.974,-24.5457 648,-20 636.266,-15.1396 622.459,-14.7431 610.222,-15.9776"/>
<polygon fill="black" stroke="black" points="609.383,-12.5607 599.964,-17.4112 610.352,-19.4934 609.383,-12.5607"/>
<text text-anchor="middle" x="634" y="-23.8" font-family="Times,serif" font-size="14.00">DEF</text>
</g>
<!-- 6&#45;&gt;8 -->
<g id="edge28" class="edge"><title>6&#45;&gt;8</title>
<path fill="none" stroke="black" d="M553.588,-19.1013C484.815,-8.4391 273.608,14.4605 144,-80 124.862,-93.9484 113.563,-118.166 107.074,-138.657"/>
<polygon fill="black" stroke="black" points="103.685,-137.777 104.261,-148.356 110.408,-139.727 103.685,-137.777"/>
<text text-anchor="middle" x="356" y="-17.8" font-family="Times,serif" font-size="14.00">&#39;&#39;&#39; / Stop</text>
</g>
<!-- 6&#45;&gt;7 -->
<g id="edge30" class="edge"><title>6&#45;&gt;7</title>
<path fill="none" stroke="black" d="M599.283,-31.3693C605.893,-33.8983 613.224,-36.631 620,-39 632.117,-43.2362 645.544,-47.5926 657.308,-51.2995"/>
<polygon fill="black" stroke="black" points="656.555,-54.731 667.144,-54.3706 658.642,-48.0491 656.555,-54.731"/>
<text text-anchor="middle" x="634" y="-51.8" font-family="Times,serif" font-size="14.00">&#39;\&#39;</text>
</g>
<!-- 6&#45;&gt;6 -->
<g id="edge32" class="edge"><title>6&#45;&gt;6</title>
<path fill="none" stroke="black" d="M566.81,-44.0953C565.4,-54.6158 568.797,-64 577,-64 582.383,-64 585.697,-59.9586 586.94,-54.2068"/>
<polygon fill="black" stroke="black" points="590.442,-54.1788 587.19,-44.0953 583.444,-54.0058 590.442,-54.1788"/>
<text text-anchor="middle" x="577" y="-67.8" font-family="Times,serif" font-size="14.00">DEF</text>
</g>
</g>
</svg>
